# xmcd CD database file
#
# Track frame offsets:
#	182
#	27622
#	50940
#	81272
#	106467
#	127575
#	141772
#	177330
#	198067
#	239445
#	266832
#	277210
#
# Disc length: 3946 seconds
#
# Revision: 0
# Processed by: cddbd v1.5.2PL0 Copyright (c) Steve Scherf et al.
# Submitted via: CDex 1.51
#
DISCID=b50f680c
DTITLE=Gezz Zero Grup - Tempi Duri
DYEAR=1994
DGENRE=Jazz
TTITLE0=Cilumbita T almud
TTITLE1=Primo movimento
TTITLE2=Lonely woman
TTITLE3=Metano?
TTITLE4=Relax N.2
TTITLE5=Io ti penso sempre
TTITLE6=Z.T.L. pace dei sensi
TTITLE7=Piccolo fiore
TTITLE8=Ooty
TTITLE9=Forse... palude
TTITLE10=Oxyrhyncus
TTITLE11=Tempi duri
EXTD=YEAR: 1994
EXTT0=
EXTT1=
EXTT2=
EXTT3=
EXTT4=
EXTT5=
EXTT6=
EXTT7=
EXTT8=
EXTT9=
EXTT10=
EXTT11=
PLAYORDER=
